<?xml version="1.0" encoding="UTF-8"?>
<svg id="Laag_1" xmlns="http://www.w3.org/2000/svg" version="1.1" viewBox="0 0 312 121.53">
  <!-- Generator: Adobe Illustrator 30.3.0, SVG Export Plug-In . SVG Version: 2.1.3 Build 182)  -->
  <defs>
    <style>
      .st0 {
        fill: #3b82f6;
      }

      .st1 {
        fill: #1a1a1a;
      }

      .st2 {
        fill: #2e2e2e;
      }

      .st3 {
        fill: #e8e8e8;
      }
    </style>
  </defs>
  <rect class="st1" width="312" height="121.53"/>
  <g id="wordmark">
    <rect class="st3" x="24" y="23.53" width="8" height="8" shape-rendering="crispEdges"/>
    <rect class="st3" x="32" y="23.53" width="8" height="8" shape-rendering="crispEdges"/>
    <rect class="st3" x="40" y="23.53" width="8" height="8" shape-rendering="crispEdges"/>
    <rect class="st3" x="48" y="23.53" width="8" height="8" shape-rendering="crispEdges"/>
    <rect class="st3" x="24" y="31.53" width="8" height="8" shape-rendering="crispEdges"/>
    <rect class="st3" x="56" y="31.53" width="8" height="8" shape-rendering="crispEdges"/>
    <rect class="st3" x="24" y="39.53" width="8" height="8" shape-rendering="crispEdges"/>
    <rect class="st3" x="56" y="39.53" width="8" height="8" shape-rendering="crispEdges"/>
    <rect class="st3" x="24" y="47.53" width="8" height="8" shape-rendering="crispEdges"/>
    <rect class="st3" x="56" y="47.53" width="8" height="8" shape-rendering="crispEdges"/>
    <rect class="st3" x="24" y="55.53" width="8" height="8" shape-rendering="crispEdges"/>
    <rect class="st3" x="56" y="55.53" width="8" height="8" shape-rendering="crispEdges"/>
    <rect class="st3" x="24" y="63.53" width="8" height="8" shape-rendering="crispEdges"/>
    <rect class="st3" x="56" y="63.53" width="8" height="8" shape-rendering="crispEdges"/>
    <rect class="st3" x="24" y="71.53" width="8" height="8" shape-rendering="crispEdges"/>
    <rect class="st3" x="32" y="71.53" width="8" height="8" shape-rendering="crispEdges"/>
    <rect class="st3" x="40" y="71.53" width="8" height="8" shape-rendering="crispEdges"/>
    <rect class="st3" x="48" y="71.53" width="8" height="8" shape-rendering="crispEdges"/>
    <rect class="st3" x="80" y="23.53" width="8" height="8" shape-rendering="crispEdges"/>
    <rect class="st3" x="88" y="23.53" width="8" height="8" shape-rendering="crispEdges"/>
    <rect class="st3" x="96" y="23.53" width="8" height="8" shape-rendering="crispEdges"/>
    <rect class="st3" x="72" y="31.53" width="8" height="8" shape-rendering="crispEdges"/>
    <rect class="st3" x="104" y="31.53" width="8" height="8" shape-rendering="crispEdges"/>
    <rect class="st3" x="72" y="39.53" width="8" height="8" shape-rendering="crispEdges"/>
    <rect class="st3" x="104" y="39.53" width="8" height="8" shape-rendering="crispEdges"/>
    <rect class="st3" x="72" y="47.53" width="8" height="8" shape-rendering="crispEdges"/>
    <rect class="st3" x="80" y="47.53" width="8" height="8" shape-rendering="crispEdges"/>
    <rect class="st3" x="88" y="47.53" width="8" height="8" shape-rendering="crispEdges"/>
    <rect class="st3" x="96" y="47.53" width="8" height="8" shape-rendering="crispEdges"/>
    <rect class="st3" x="104" y="47.53" width="8" height="8" shape-rendering="crispEdges"/>
    <rect class="st3" x="72" y="55.53" width="8" height="8" shape-rendering="crispEdges"/>
    <rect class="st3" x="104" y="55.53" width="8" height="8" shape-rendering="crispEdges"/>
    <rect class="st3" x="72" y="63.53" width="8" height="8" shape-rendering="crispEdges"/>
    <rect class="st3" x="104" y="63.53" width="8" height="8" shape-rendering="crispEdges"/>
    <rect class="st3" x="72" y="71.53" width="8" height="8" shape-rendering="crispEdges"/>
    <rect class="st3" x="104" y="71.53" width="8" height="8" shape-rendering="crispEdges"/>
    <rect class="st3" x="120" y="23.53" width="8" height="8" shape-rendering="crispEdges"/>
    <rect class="st3" x="152" y="23.53" width="8" height="8" shape-rendering="crispEdges"/>
    <rect class="st3" x="120" y="31.53" width="8" height="8" shape-rendering="crispEdges"/>
    <rect class="st3" x="152" y="31.53" width="8" height="8" shape-rendering="crispEdges"/>
    <rect class="st3" x="120" y="39.53" width="8" height="8" shape-rendering="crispEdges"/>
    <rect class="st3" x="152" y="39.53" width="8" height="8" shape-rendering="crispEdges"/>
    <rect class="st3" x="120" y="47.53" width="8" height="8" shape-rendering="crispEdges"/>
    <rect class="st3" x="152" y="47.53" width="8" height="8" shape-rendering="crispEdges"/>
    <rect class="st3" x="120" y="55.53" width="8" height="8" shape-rendering="crispEdges"/>
    <rect class="st3" x="136" y="55.53" width="8" height="8" shape-rendering="crispEdges"/>
    <rect class="st3" x="152" y="55.53" width="8" height="8" shape-rendering="crispEdges"/>
    <rect class="st3" x="120" y="63.53" width="8" height="8" shape-rendering="crispEdges"/>
    <rect class="st3" x="136" y="63.53" width="8" height="8" shape-rendering="crispEdges"/>
    <rect class="st3" x="152" y="63.53" width="8" height="8" shape-rendering="crispEdges"/>
    <rect class="st3" x="128" y="71.53" width="8" height="8" shape-rendering="crispEdges"/>
    <rect class="st3" x="144" y="71.53" width="8" height="8" shape-rendering="crispEdges"/>
    <rect class="st3" x="168" y="39.53" width="8" height="8" shape-rendering="crispEdges"/>
    <rect class="st3" x="200" y="39.53" width="8" height="8" shape-rendering="crispEdges"/>
    <rect class="st3" x="168" y="47.53" width="8" height="8" shape-rendering="crispEdges"/>
    <rect class="st3" x="200" y="47.53" width="8" height="8" shape-rendering="crispEdges"/>
    <rect class="st3" x="168" y="55.53" width="8" height="8" shape-rendering="crispEdges"/>
    <rect class="st3" x="200" y="55.53" width="8" height="8" shape-rendering="crispEdges"/>
    <rect class="st3" x="176" y="63.53" width="8" height="8" shape-rendering="crispEdges"/>
    <rect class="st3" x="192" y="63.53" width="8" height="8" shape-rendering="crispEdges"/>
    <rect class="st3" x="184" y="71.53" width="8" height="8" shape-rendering="crispEdges"/>
    <rect class="st3" x="216" y="39.53" width="8" height="8" shape-rendering="crispEdges"/>
    <rect class="st3" x="224" y="39.53" width="8" height="8" shape-rendering="crispEdges"/>
    <rect class="st3" x="224" y="47.53" width="8" height="8" shape-rendering="crispEdges"/>
    <rect class="st3" x="224" y="55.53" width="8" height="8" shape-rendering="crispEdges"/>
    <rect class="st3" x="224" y="63.53" width="8" height="8" shape-rendering="crispEdges"/>
    <rect class="st3" x="216" y="71.53" width="8" height="8" shape-rendering="crispEdges"/>
    <rect class="st3" x="224" y="71.53" width="8" height="8" shape-rendering="crispEdges"/>
    <rect class="st3" x="232" y="71.53" width="8" height="8" shape-rendering="crispEdges"/>
    <rect class="st3" x="280" y="23.53" width="8" height="8" shape-rendering="crispEdges"/>
    <rect class="st3" x="280" y="31.53" width="8" height="8" shape-rendering="crispEdges"/>
    <rect class="st3" x="256" y="39.53" width="8" height="8" shape-rendering="crispEdges"/>
    <rect class="st3" x="264" y="39.53" width="8" height="8" shape-rendering="crispEdges"/>
    <rect class="st3" x="272" y="39.53" width="8" height="8" shape-rendering="crispEdges"/>
    <rect class="st3" x="280" y="39.53" width="8" height="8" shape-rendering="crispEdges"/>
    <rect class="st3" x="248" y="47.53" width="8" height="8" shape-rendering="crispEdges"/>
    <rect class="st3" x="280" y="47.53" width="8" height="8" shape-rendering="crispEdges"/>
    <rect class="st3" x="248" y="55.53" width="8" height="8" shape-rendering="crispEdges"/>
    <rect class="st3" x="280" y="55.53" width="8" height="8" shape-rendering="crispEdges"/>
    <rect class="st3" x="248" y="63.53" width="8" height="8" shape-rendering="crispEdges"/>
    <rect class="st3" x="280" y="63.53" width="8" height="8" shape-rendering="crispEdges"/>
    <rect class="st3" x="256" y="71.53" width="8" height="8" shape-rendering="crispEdges"/>
    <rect class="st3" x="264" y="71.53" width="8" height="8" shape-rendering="crispEdges"/>
    <rect class="st3" x="272" y="71.53" width="8" height="8" shape-rendering="crispEdges"/>
    <rect class="st3" x="280" y="71.53" width="8" height="8" shape-rendering="crispEdges"/>
  </g>
  <polygon id="playhead" class="st0" points="219 16.53 236 16.53 236 22.58 227.5 27.53 219 22.58 219 16.53"/>
  <g id="scrubber">
    <rect class="st2" x="24" y="97.53" width="264" height="3" shape-rendering="crispEdges"/>
    <rect class="st0" x="24" y="97.53" width="132" height="3" shape-rendering="crispEdges"/>
    <circle class="st3" cx="157" cy="99.03" r="5"/>
  </g>
</svg>